# xmcd
#
# Track frame offsets:
#	150
#	10670
#	44340
#	67980
#	110286
#	139054
#	166008
#	205946
#
# Disc length: 3170 seconds
#
# Revision: 1
# Processed by: cddbd v1.5.2PL0 Copyright (c) Steve Scherf et al.
# Submitted via: audiograbber 1.83.01
#
DISCID=5f0c6008
DTITLE=Grateful Dead - 93-09-24 Boston Gardens, Boston MA
DYEAR=1900
DGENRE=
TTITLE0=Tuning
TTITLE1=Feel Like A Stranger
TTITLE2=Jack-A-Roe
TTITLE3=Little Red Rooster
TTITLE4=Stagger Lee
TTITLE5=Queen Jane Approximately
TTITLE6=Loose Lucy
TTITLE7=Picasso Moon
EXTD=
EXTT0=
EXTT1=
EXTT2=
EXTT3=
EXTT4=
EXTT5=
EXTT6=
EXTT7=
PLAYORDER=
